<svg width="36" height="28" viewBox="0 0 36 28" fill="none" xmlns="http://www.w3.org/2000/svg">
<path d="M30.4755 2.27565C28.181 1.22235 25.7205 0.446327 23.1478 0.00186446C23.101 -0.00671352 23.0542 0.0147233 23.0301 0.057598C22.7136 0.620676 22.3631 1.35526 22.1176 1.93264C19.3506 1.51819 16.5978 1.51819 13.8875 1.93264C13.642 1.34242 13.2787 0.620676 12.9609 0.057598C12.9367 0.0161538 12.8899 -0.00528301 12.8431 0.00186446C10.2719 0.444906 7.81134 1.22093 5.5154 2.27565C5.49553 2.28423 5.47849 2.29853 5.46718 2.3171C0.800088 9.29281 -0.478425 16.0971 0.14877 22.817C0.151608 22.8498 0.170055 22.8813 0.195597 22.9013C3.27481 25.1636 6.25756 26.537 9.18492 27.4474C9.23177 27.4617 9.28141 27.4445 9.31122 27.4059C10.0037 26.4599 10.621 25.4623 11.1502 24.4133C11.1814 24.3519 11.1516 24.279 11.0878 24.2547C10.1087 23.8831 9.1764 23.43 8.27959 22.9156C8.20866 22.8741 8.20298 22.7726 8.26824 22.724C8.45696 22.5825 8.64573 22.4353 8.82593 22.2867C8.85853 22.2596 8.90397 22.2538 8.9423 22.271C14.8339 24.9621 21.2123 24.9621 27.0344 22.271C27.0728 22.2524 27.1182 22.2581 27.1522 22.2853C27.3325 22.4339 27.5212 22.5825 27.7113 22.724C27.7766 22.7726 27.7723 22.8741 27.7014 22.9156C26.8046 23.44 25.8723 23.8831 24.8918 24.2532C24.8279 24.2775 24.7995 24.3519 24.8308 24.4133C25.3714 25.4609 25.9887 26.4584 26.6683 27.4045C26.6967 27.4445 26.7478 27.4617 26.7946 27.4474C29.7362 26.537 32.7189 25.1636 35.7981 22.9013C35.8251 22.8813 35.8422 22.8512 35.845 22.8184C36.5956 15.0494 34.5877 8.30099 30.5223 2.31852C30.5124 2.29853 30.4954 2.28423 30.4755 2.27565ZM12.03 18.7252C10.2562 18.7252 8.7947 17.096 8.7947 15.0952C8.7947 13.0944 10.2279 11.4652 12.03 11.4652C13.8463 11.4652 15.2937 13.1087 15.2653 15.0952C15.2653 17.096 13.8321 18.7252 12.03 18.7252ZM23.9921 18.7252C22.2184 18.7252 20.7568 17.096 20.7568 15.0952C20.7568 13.0944 22.19 11.4652 23.9921 11.4652C25.8084 11.4652 27.2558 13.1087 27.2275 15.0952C27.2275 17.096 25.8084 18.7252 23.9921 18.7252Z" fill="#F2F4FF"/>
</svg>
