<svg width="34" height="33" viewBox="0 0 34 33" fill="none" xmlns="http://www.w3.org/2000/svg">
<path fill-rule="evenodd" clip-rule="evenodd" d="M17 0.799992C13.1517 0.798063 9.42838 2.16614 6.49684 4.65923C3.5653 7.15232 1.61701 10.6076 1.00086 14.4062C0.384719 18.2049 1.14097 22.0988 3.13418 25.3907C5.1274 28.6826 8.22738 31.1574 11.879 32.372C12.689 32.5214 12.9842 32.021 12.9842 31.5908C12.9842 31.2074 12.9716 30.1868 12.9626 28.8368C8.45719 29.8142 7.50679 26.6642 7.50679 26.6642C6.76879 24.7922 5.70679 24.2936 5.70679 24.2936C4.23619 23.2892 5.81839 23.309 5.81839 23.309C7.44379 23.4242 8.29879 24.9794 8.29879 24.9794C9.74419 27.4544 12.0914 26.7398 13.0148 26.3258C13.1624 25.2782 13.58 24.5654 14.0408 24.1604C10.4462 23.7518 6.66079 22.3604 6.66079 16.154C6.66079 14.3846 7.29439 12.9374 8.33119 11.807C8.16379 11.3966 7.60759 9.74779 8.49139 7.51939C8.49139 7.51939 9.8504 7.08379 12.9446 9.17899C14.2664 8.81896 15.63 8.63556 17 8.63359C18.3699 8.63578 19.7336 8.81917 21.0554 9.17899C24.1496 7.08379 25.5068 7.51939 25.5068 7.51939C26.3888 9.74779 25.8344 11.3966 25.6688 11.807C26.7074 12.9374 27.3338 14.3846 27.3338 16.154C27.3338 22.3766 23.5448 23.7464 19.9358 24.146C20.5172 24.6464 21.0338 25.6364 21.0338 27.1466C21.0338 29.312 21.0158 31.0598 21.0158 31.5908C21.0158 32.0228 21.3092 32.5286 22.13 32.3702C25.781 31.1544 28.88 28.6787 30.8721 25.3863C32.8642 22.0939 33.6192 18.2 33.002 14.4017C32.3848 10.6033 30.4356 7.14879 27.5036 4.65656C24.5716 2.16433 20.8481 0.797209 17 0.799992Z" fill="white"/>
</svg>
