<svg width="20" height="32" viewBox="0 0 20 32" fill="none" xmlns="http://www.w3.org/2000/svg">
<path d="M19.5 14.1H15.7V10.3C15.7 8.78825 15.0995 7.33844 14.0305 6.26948C12.9616 5.20052 11.5117 4.59999 10 4.59999C8.48827 4.59999 7.03845 5.20052 5.96949 6.26948C4.90053 7.33844 4.3 8.78825 4.3 10.3V14.1H0.5V10.3C0.5 7.78043 1.50089 5.36407 3.28249 3.58247C5.06408 1.80088 7.48044 0.799988 10 0.799988C12.5196 0.799988 14.9359 1.80088 16.7175 3.58247C18.4991 5.36407 19.5 7.78043 19.5 10.3V14.1ZM15.7 21.7V17.9H19.5V21.7C19.5 24.2195 18.4991 26.6359 16.7175 28.4175C14.9359 30.1991 12.5196 31.2 10 31.2C7.48044 31.2 5.06408 30.1991 3.28249 28.4175C1.50089 26.6359 0.5 24.2195 0.5 21.7V17.9H4.3V21.7C4.3 23.2117 4.90053 24.6615 5.96949 25.7305C7.03845 26.7995 8.48827 27.4 10 27.4C11.5117 27.4 12.9616 26.7995 14.0305 25.7305C15.0995 24.6615 15.7 23.2117 15.7 21.7Z" fill="white"/>
<path d="M11.9 10.3H8.1V21.7H11.9V10.3Z" fill="white"/>
</svg>
