<svg width="37" height="32" viewBox="0 0 37 32" fill="none" xmlns="http://www.w3.org/2000/svg">
<path d="M37 3.68795C35.6603 4.32087 34.2296 4.73931 32.76 4.92795C34.3275 3.91025 35.479 2.36504 36.006 0.571953C34.5702 1.48546 32.9815 2.13249 31.316 2.48195C30.6445 1.71091 29.817 1.09116 28.8882 0.663646C27.9594 0.236135 26.9504 0.0106029 25.928 0.00195312C21.848 0.00195313 18.54 3.52195 18.54 7.88196C18.54 8.50196 18.614 9.10196 18.74 9.68196C12.6 9.33596 7.15599 6.19995 3.50599 1.43995C2.84599 2.65195 2.50599 4.01195 2.50999 5.39395C2.50999 8.11996 3.81599 10.528 5.79599 11.94C4.61586 11.8994 3.46531 11.5602 2.45199 10.954V11.054C2.45199 14.866 4.99599 18.046 8.37799 18.768C7.27799 19.08 6.13799 19.128 5.03799 18.902C5.97799 22.042 8.69799 24.302 11.938 24.362C10.4412 25.6359 8.69524 26.5837 6.81158 27.145C4.92793 27.7063 2.94794 27.8688 0.997986 27.622C4.32401 29.9247 8.27262 31.1595 12.318 31.162C25.898 31.162 33.338 19.182 33.338 8.78195C33.338 8.44195 33.318 8.10196 33.318 7.76196C34.778 6.64195 36.018 5.26195 36.998 3.70195" fill="#F2F4FF"/>
</svg>
