<svg width="38" height="28" viewBox="0 0 38 28" fill="none" xmlns="http://www.w3.org/2000/svg">
<path fill-rule="evenodd" clip-rule="evenodd" d="M15.0122 19.5995V8.51754L24.7485 14.0596L15.0122 19.5995ZM36.6752 5.03126C36.4649 4.23796 36.0497 3.51391 35.4712 2.93178C34.8927 2.34965 34.1713 1.92993 33.3793 1.71474C30.4727 0.93219 18.8214 0.93219 18.8214 0.93219C18.8214 0.93219 7.17013 0.93219 4.26351 1.71474C3.47202 1.93044 2.75111 2.35037 2.17303 2.93244C1.59495 3.51452 1.18001 4.2383 0.969765 5.03126C0.189285 7.95651 0.189285 14.0575 0.189285 14.0575C0.189285 14.0575 0.189285 20.1606 0.969765 23.0837C1.3983 24.6985 2.66115 25.9696 4.26144 26.4023C7.17013 27.189 18.8214 27.189 18.8214 27.189C18.8214 27.189 30.4727 27.189 33.3793 26.4023C34.1711 26.1868 34.8924 25.7669 35.4708 25.1848C36.0492 24.6028 36.4646 23.8789 36.6752 23.0858C37.4536 20.1606 37.4536 14.0596 37.4536 14.0596C37.4536 14.0596 37.4536 7.95651 36.6752 5.03126Z" fill="white"/>
</svg>
